<svg height="512pt" viewBox="0 0 512 512" width="512pt" xmlns="http://www.w3.org/2000/svg"><path d="m347.683594 358.535156v-140.714844c0-8.285156-6.714844-15-15-15h-.335938v-28.015624c0-42.097657-34.25-76.347657-76.347656-76.347657s-76.347656 34.25-76.347656 76.347657v28.015624h-.335938c-8.28125 0-15 6.714844-15 15v140.714844c0 8.285156 6.71875 15 15 15h153.367188c8.285156 0 15-6.714844 15-15zm-106.683594-72.652344c0-8.285156 6.714844-15 15-15s15 6.714844 15 15v18.679688c0 8.28125-6.714844 15-15 15s-15-6.71875-15-15zm-31.347656-111.078124c0-25.554688 20.792968-46.347657 46.347656-46.347657s46.347656 20.792969 46.347656 46.347657v28.015624h-92.695312zm0 0"/><path d="m437.019531 74.980469c-48.351562-48.351563-112.640625-74.980469-181.019531-74.980469s-132.667969 26.628906-181.019531 74.980469c-48.351563 48.351562-74.980469 112.640625-74.980469 181.019531 0 82.308594 39.019531 158.585938 105.054688 206.78125l-4.816407 1.605469c-7.859375 2.617187-12.109375 11.109375-9.492187 18.972656 2.09375 6.285156 7.949218 10.261719 14.230468 10.261719 1.570313 0 3.167969-.246094 4.742188-.769532l32.933594-10.96875c6.015625-2.003906 10.121094-7.574218 10.257812-13.914062l.730469-34.707031c.175781-8.28125-6.398437-15.136719-14.679687-15.3125-8.265626-.1875-15.140626 6.398437-15.316407 14.683593l-.132812 6.457032c-58.757813-42.53125-93.511719-110.121094-93.511719-183.089844 0-124.617188 101.382812-226 226-226s226 101.382812 226 226-101.382812 226-226 226c-8.285156 0-15 6.714844-15 15s6.714844 15 15 15c68.378906 0 132.667969-26.628906 181.019531-74.980469 48.351563-48.351562 74.980469-112.640625 74.980469-181.019531s-26.628906-132.667969-74.980469-181.019531zm0 0"/></svg>